<?xml version="1.0" encoding="UTF-8" standalone="no"?>
<svg
   xmlns:dc="http://purl.org/dc/elements/1.1/"
   xmlns:cc="http://creativecommons.org/ns#"
   xmlns:rdf="http://www.w3.org/1999/02/22-rdf-syntax-ns#"
   xmlns:svg="http://www.w3.org/2000/svg"
   xmlns="http://www.w3.org/2000/svg"
   id="svg10"
   version="1.1"
   viewBox="0 0 38.551362 6.911535"
   height="89.640984"
   width="500.00211">
  <metadata
     id="metadata16">
    <rdf:RDF>
      <cc:Work
         rdf:about="">
        <dc:format>image/svg+xml</dc:format>
        <dc:type
           rdf:resource="http://purl.org/dc/dcmitype/StillImage" />
        <dc:title></dc:title>
      </cc:Work>
    </rdf:RDF>
  </metadata>
  <defs
     id="defs14" />
  <path
     d="m 26.015283,6.7659132 c 0,0.04224 0.03462,0.07686 0.07686,0.07686 h 1.901728 a 0.07706644,0.07706644 0 0 0 0.07645,-0.07686 V 0.16704825 a 0.07706644,0.07706644 0 0 0 -0.07645,-0.07686 h -1.901728 a 0.07706644,0.07706644 0 0 0 -0.07686,0.07686 z m -8.877477,-0.0816 -2.80015,-6.48367795 a 0.12713903,0.12713903 0 0 0 -0.107357,-0.07068 h -2.817665 a 0.12713903,0.12713903 0 0 0 -0.107357,0.07068 L 8.505128,6.6843132 c -0.0169,0.03874 0.0041,0.07047 0.04636,0.07047 h 1.981267 a 0.12260571,0.12260571 0 0 0 0.105502,-0.0713 l 0.404702,-1.001864 a 0.12363601,0.12363601 0 0 1 0.105709,-0.0713 h 3.350948 a 0.11951481,0.11951481 0 0 1 0.10406,0.07191 l 0.380387,1.000627 c 0.01504,0.03936 0.06182,0.07192 0.10406,0.07192 h 2.003315 c 0.04224,0 0.06305,-0.03194 0.04636,-0.07047 z m -5.537864,-2.482611 0.924386,-2.409872 c 0.110035,-0.24212 0.214714,-0.27509 0.313623,-0.27509 0.104473,0 0.225636,0.09891 0.291781,0.286011 l 0.911609,2.398951 z M 34.390386,0.04959325 H 32.22078 c -2.625205,0.03915 -3.026816,0.874931 -3.026816,3.32065795 0,0.415004 0,0.830215 0.02019,1.245014 0.07088,1.629934 0.961887,2.136224 2.449847,2.247497 0.466107,0.03029 1.550602,0.05069 1.595316,0.04863 0,0 1.222761,-0.01834 1.68825,-0.04863 1.488372,-0.111273 2.378963,-0.617563 2.449848,-2.247497 0.02061,-0.415005 0.02061,-0.83001 0.02061,-1.245014 -2.06e-4,-2.44572695 -0.40223,-3.28150695 -3.027639,-3.32065795 z m 0.951997,3.60419595 c 0,1.113548 -0.07088,1.548953 -1.295911,1.579244 -0.319599,0.01772 -1.161973,0.01772 -1.481366,0 -1.224615,-0.03029 -1.295911,-0.465696 -1.295911,-1.579244 v -0.273235 c 0,-0.263139 0,-0.526484 0.0305,-0.789828 0.121576,-0.931392 0.819912,-0.880701 1.508359,-0.900895 0.252423,-0.0039 0.742846,-0.0039 0.99527,0 0.688652,0.02019 1.386784,-0.03029 1.508359,0.900895 0.0305,0.263344 0.0305,0.526689 0.0305,0.789828 v 0.273235 z M 6.1315218,4.2350842 c -0.056048,0.687828 -0.2956962,0.973634 -1.2790145,0.997949 -0.3195991,0.01772 -1.1619724,0.01772 -1.4813655,0 C 2.146115,5.2027422 2.0752304,4.7673372 2.0752304,3.6537892 v -0.273235 c 0,-0.263139 0,-0.526484 0.030291,-0.789828 0.1213693,-0.931392 0.8201189,-0.880701 1.5085654,-0.900895 0.2524235,-0.0039 0.7428463,-0.0039 0.9954759,0 0.6569193,0.01937 1.3224932,-0.02514 1.4877532,0.779525 H 8.197479 C 8.075492,0.71434325 7.468851,0.08359325 5.1968334,0.04959325 H 3.0270216 C 0.4020231,0.08874425 0,0.92452425 0,3.3702512 c 0,0.415004 0,0.830215 0.0204,1.245014 0.070884,1.629934 0.961682,2.136224 2.4500535,2.247497 0.4656956,0.03029 1.5503955,0.05069 1.5953166,0.04863 0,0 1.2223481,-0.01834 1.6880437,-0.04863 1.4881652,-0.111273 2.3789632,-0.617563 2.4500532,-2.247497 0.0062,-0.126727 0.0101,-0.253454 0.01298,-0.380387 H 6.1315218 Z m 13.6998992,-0.03359 c 0.455599,0.0033 0.901101,0.01669 1.3567,0.02019 l 0.562337,0.02432 c 0.465696,0.02349 1.168773,-0.14486 1.170009,0.615914 8.25e-4,0.49372 -0.47641,0.504435 -0.841136,0.52195 -0.526484,0.01649 -0.448799,0.02535 -0.975076,0.02143 a 16.12708,16.12708 0 0 1 -0.683708,-0.01504 c -0.455598,-0.0237 -0.7583,-0.137237 -0.785294,-0.643732 l -2.014443,-0.01463 c 0.007,0.425102 -0.02761,0.758712 0.192254,1.154966 0.480119,0.803222 1.432323,0.95241 2.262538,0.968688 l 0.975076,0.02741 c 0.779526,0.0058 1.889983,0.0039 2.610369,-0.183187 1.075015,-0.265405 1.262117,-0.952616 1.269742,-1.954686 0.0041,-0.54544 -0.122399,-0.959621 -0.350096,-1.258408 -0.300641,-0.394398 -0.778288,-0.588301 -1.367208,-0.620034 -1.124469,-0.06038 -1.376893,-0.08098 -2.500539,-0.08943 l -0.366992,-0.0027 c -0.445502,-0.0033 -0.950761,-0.145683 -0.94664,-0.692155 0.0043,-0.577174 0.45972,-0.60458 0.91573,-0.613647 0.224606,-0.0043 0.492277,-0.0039 0.947876,-4.12e-4 0.323927,0.0023 0.229345,0.0169 0.553478,0.01401 0.55018,-0.0045 1.062858,0.03029 1.05853,0.647853 l 2.024746,0.01484 0.0021,-0.305794 c 0.01133,-1.52793495 -0.993621,-1.71915895 -2.112527,-1.79746095 -0.455598,-0.03379 -0.921294,-0.03709 -1.376893,-0.04059 -0.880495,-0.0064 -0.871428,0.01381 -1.752334,0.0579 -1.559875,0.110036 -2.290976,0.408205 -2.303339,2.06863695 -0.01339,1.751716 0.90584,2.062042 2.47478,2.073787 z m 18.650904,1.852274 a 0.50072583,0.50072583 0 0 0 -0.189163,-0.188545 0.51308943,0.51308943 0 0 0 -0.256751,-0.06841 c -0.09046,0 -0.175974,0.02287 -0.256338,0.06841 a 0.51329549,0.51329549 0 0 0 -0.257575,0.44612 c 0,0.09334 0.0237,0.180302 0.0713,0.260872 a 0.51020459,0.51020459 0 0 0 0.442822,0.253042 0.51041065,0.51041065 0 0 0 0.443442,-0.253042 c 0.04739,-0.08057 0.0713,-0.167321 0.0713,-0.260872 a 0.51185308,0.51185308 0 0 0 -0.06903,-0.257575 z m -0.06965,0.479296 a 0.43416845,0.43416845 0 0 1 -0.376266,0.214301 c -0.07645,0 -0.148568,-0.01875 -0.215331,-0.05584 a 0.42613211,0.42613211 0 0 1 -0.160522,-0.158459 0.42757453,0.42757453 0 0 1 -0.06038,-0.221515 c 0,-0.07789 0.01937,-0.15063 0.0579,-0.218836 a 0.42036243,0.42036243 0 0 1 0.16052,-0.160109 c 0.068,-0.03874 0.140945,-0.0579 0.217805,-0.0579 0.07727,0 0.149806,0.01937 0.217806,0.0579 0.06841,0.03874 0.121988,0.09211 0.160521,0.160109 0.03853,0.068 0.0579,0.140945 0.0579,0.218836 4.13e-4,0.07954 -0.01937,0.153308 -0.05996,0.221515 z"
     id="path4"
     style="clip-rule:evenodd;fill:#ffffff;fill-rule:evenodd;stroke-width:0.20606" />
  <path
     d="m 185.29,31.233623 c -0.121,-0.225 -0.236,-0.371 -0.344,-0.438 a 0.965,0.965 0 0 0 0.457,-0.37 0.946,0.946 0 0 0 0.148,-0.504 0.879,0.879 0 0 0 -0.107,-0.422 0.735,0.735 0 0 0 -0.289,-0.298 c -0.123,-0.07 -0.303,-0.105 -0.541,-0.105 h -0.98 v 3.083 h 0.484 v -1.296 h 0.361 c 0.051,0 0.133,0.101 0.246,0.301 l 0.1,0.191 0.422,0.804 h 0.553 z m -0.834,-0.72 h -0.338 v -1.044 h 0.367 c 0.17,0 0.289,0.023 0.357,0.07 a 0.446,0.446 0 0 1 0.154,0.175 0.51,0.51 0 0 1 0.053,0.234 0.634,0.634 0 0 1 -0.131,0.389 c -0.085,0.118 -0.239,0.176 -0.462,0.176 z"
     id="path6"
     style="clip-rule:evenodd;fill:#ff0000;fill-rule:evenodd" />
</svg>
